<?xml version="1.0" encoding="UTF-8" standalone="no"?>
<!-- Generator: Adobe Illustrator 19.2.0, SVG Export Plug-In . SVG Version: 6.00 Build 0)  -->

<svg
   xmlns:dc="http://purl.org/dc/elements/1.1/"
   xmlns:cc="http://creativecommons.org/ns#"
   xmlns:rdf="http://www.w3.org/1999/02/22-rdf-syntax-ns#"
   xmlns:svg="http://www.w3.org/2000/svg"
   xmlns="http://www.w3.org/2000/svg"
   xmlns:xlink="http://www.w3.org/1999/xlink"
   xmlns:sodipodi="http://sodipodi.sourceforge.net/DTD/sodipodi-0.dtd"
   xmlns:inkscape="http://www.inkscape.org/namespaces/inkscape"
   version="1.1"
   id="Vrstva_1"
   x="0px"
   y="0px"
   preserveAspectRatio="none"
   viewBox="0 0 425.60002 57.8877"
   xml:space="preserve"
   sodipodi:docname="lajna.svg"
   width="425.60001"
   height="57.887699"
   inkscape:version="0.92.2 5c3e80d, 2017-08-06"><metadata
     id="metadata21"><rdf:RDF><cc:Work
         rdf:about=""><dc:format>image/svg+xml</dc:format><dc:type
           rdf:resource="http://purl.org/dc/dcmitype/StillImage" /><dc:title></dc:title></cc:Work></rdf:RDF></metadata><defs
     id="defs19" /><sodipodi:namedview
     pagecolor="#ffffff"
     bordercolor="#666666"
     borderopacity="1"
     objecttolerance="10"
     gridtolerance="10"
     guidetolerance="10"
     inkscape:pageopacity="0"
     inkscape:pageshadow="2"
     inkscape:window-width="1371"
     inkscape:window-height="634"
     id="namedview17"
     showgrid="false"
     inkscape:pagecheckerboard="true"
     inkscape:zoom="1.5290232"
     inkscape:cx="204.09311"
     inkscape:cy="45.739318"
     inkscape:window-x="0"
     inkscape:window-y="0"
     inkscape:window-maximized="0"
     inkscape:current-layer="Vrstva_1"
     fit-margin-top="100"
     fit-margin-left="0"
     fit-margin-right="0"
     fit-margin-bottom="0" /><style
     type="text/css"
     id="style2">
	.st0{clip-path:url(#SVGID_2_);fill:#FFFFFF;}
	.st1{clip-path:url(#SVGID_2_);fill:none;stroke:#000000;}
</style><rect
     style="fill:#ffffff;fill-opacity:1;stroke:none;stroke-width:1;stroke-opacity:1"
     id="rect822"
     width="425.78262"
     height="4.1496391"
     x="0"
     y="-0.45593107" /><g
     id="g14"
     transform="translate(1,2.5000227)"><defs
       id="defs5"><rect
         id="SVGID_1_"
         x="-1"
         y="0.5"
         width="425.60001"
         height="53.099998" /></defs><clipPath
       id="SVGID_2_"><use
         xlink:href="#SVGID_1_"
         style="overflow:visible"
         id="use7"
         x="0"
         y="0"
         width="100%"
         height="100%" /></clipPath><path
       class="st0"
       d="M 424.2,0.5 H -1 v 31 h 6 c 0,0 11.6,-0.3 16.2,3.4 4.5,3.7 19.8,3 28.1,1.7 8.2,-1.3 16.4,-3.7 26.9,-6.2 10.5,-2.6 27.2,-6.5 28.3,-6.8 1.1,-0.3 9.6,-2.6 9.6,-2.6 0,0 8.5,-3.6 18.7,-2 10.2,1.7 20.1,-4.6 26.9,-5.7 6.8,-1.1 20.1,-4.8 30.3,-6.8 10.2,-2 24.4,-4.3 24.4,-4.3 0,0 9.4,-3.7 29.2,1.1 19.8,4.8 22.1,5.4 26.4,6.5 4.3,1.1 19.6,5.1 21.8,6.2 2.3,1.1 7.1,0.1 19.4,8.9 12.3,8.8 19.8,15 34,15.3 14.2,0.3 15.3,-3.7 25.8,2.6 10.5,6.2 18,6.9 20.3,7.4 2.3,0.4 6,1.3 7.2,1.8 1.3,0.6 6.7,2.3 11.2,-1.6 4.5,-3.8 9.1,-2.3 11.2,-1.3 2.1,1 3.3,2.7 3.3,2.7 z"
       clip-path="url(#SVGID_2_)"
       id="path10"
       inkscape:connector-curvature="0"
       style="fill:#ffffff"
       transform="matrix(1.0013702,0,0,1,0.00137019,0)" /><path
       class="st1"
       d="m -1,31.5 h 6 c 0,0 11.6,-0.3 16.2,3.4 4.5,3.7 19.8,3 28.1,1.7 8.2,-1.3 16.4,-3.7 26.9,-6.2 10.5,-2.6 27.2,-6.5 28.3,-6.8 1.1,-0.3 9.6,-2.6 9.6,-2.6 0,0 8.5,-3.6 18.7,-2 10.2,1.7 20.1,-4.6 26.9,-5.7 6.8,-1.1 20.1,-4.8 30.3,-6.8 10.2,-2 24.4,-4.3 24.4,-4.3 0,0 9.4,-3.7 29.2,1.1 19.8,4.8 22.1,5.4 26.4,6.5 4.3,1.1 19.6,5.1 21.8,6.2 2.3,1.1 7.1,0.1 19.4,8.9 12.3,8.8 19.8,15 34,15.3 14.2,0.3 15.3,-3.7 25.8,2.6 10.5,6.2 18,6.9 20.3,7.4 2.3,0.4 6,1.3 7.2,1.8 1.3,0.6 6.7,2.3 11.2,-1.6 4.5,-3.8 9.1,-2.3 11.2,-1.3 2.1,1 3.3,2.7 3.3,2.7"
       clip-path="url(#SVGID_2_)"
       id="path12"
       inkscape:connector-curvature="0"
       style="fill:none;stroke:#CD1719;stroke-width:2;stroke-dasharray:1,1;stroke-opacity:1" /></g></svg>
