<?xml version="1.0" encoding="iso-8859-1"?>
<!-- Generator: Adobe Illustrator 19.0.0, SVG Export Plug-In . SVG Version: 6.00 Build 0)  -->
<svg version="1.1" id="Layer_1" xmlns="http://www.w3.org/2000/svg" xmlns:xlink="http://www.w3.org/1999/xlink" x="0px" y="0px"
	 viewBox="0 0 479 479" style="enable-background:new 0 0 479 479;" xml:space="preserve">
<g>
	<g>
		<g>
			<path d="M238.72,178.35c-49.993,0-90.664,40.675-90.664,90.672c0,49.993,40.672,90.665,90.664,90.665
				c49.984,0,90.65-40.672,90.65-90.665C329.37,219.024,288.705,178.35,238.72,178.35z M238.719,339.686
				c-38.964,0-70.664-31.7-70.664-70.665c0-38.969,31.7-70.672,70.664-70.672c38.957,0,70.65,31.704,70.65,70.672
				C309.369,307.985,277.676,339.686,238.719,339.686z"/>
			<path d="M419,118.501H206.635c-6.81-13.069-16.121-19.686-27.773-19.686H141.05V72.495c0-5.523-4.477-10-10-10H82.631
				c-5.523,0-10,4.477-10,10v26.319H41.917c-2.192,0-4.532-0.095-6.794-0.187c-9.757-0.397-20.816-0.847-28.367,6.403
				C2.273,109.336,0,115.469,0,123.258v224.849c0,17.757,17.99,61.233,41.565,61.233h150.017c0.265,0,0.525-0.02,0.784-0.04
				c14.353,4.669,29.662,7.205,45.553,7.205c16.777,0,32.907-2.822,47.946-8.004H419c33.084,0,60-26.916,60-60v-170
				C479,145.417,452.084,118.501,419,118.501z M92.631,82.495h28.418v16.319H92.631V82.495z M41.576,389.34
				c-1.548-0.098-6.959-4.033-12.955-15.091C23.021,363.923,20,353.073,20,348.106V123.258c0-2.944,0.605-3.795,0.607-3.799
				c1.436-1.346,9.416-1.021,13.703-0.847c2.462,0.1,5.008,0.204,7.607,0.204h136.944c3.987,0,7.657,3.611,10.944,10.734
				c-57.794,19.995-99.415,74.961-99.415,139.472c0,49.607,24.628,93.571,62.3,120.318L41.576,389.34z M282.293,388.536
				c-1.832,0.128-3.527,0.742-4.955,1.725c-12.419,4.047-25.666,6.244-39.419,6.244c-70.32,0-127.529-57.189-127.529-127.484
				c0-70.323,57.209-127.536,127.528-127.536c70.307,0,127.506,57.212,127.506,127.536
				C365.424,323.72,330.787,370.479,282.293,388.536z M459,348.5c0,22.056-17.944,40-40,40h-94.71
				c37.011-26.822,61.134-70.384,61.134-119.479c0-56.553-31.983-105.766-78.802-130.521H419c22.056,0,40,17.944,40,40V348.5z"/>
		</g>
	</g>
</g>
<g>
</g>
<g>
</g>
<g>
</g>
<g>
</g>
<g>
</g>
<g>
</g>
<g>
</g>
<g>
</g>
<g>
</g>
<g>
</g>
<g>
</g>
<g>
</g>
<g>
</g>
<g>
</g>
<g>
</g>
</svg>
