<?xml version="1.0" encoding="iso-8859-1"?>
<!-- Generator: Adobe Illustrator 19.0.0, SVG Export Plug-In . SVG Version: 6.00 Build 0)  -->
<svg version="1.1" id="Capa_1" xmlns="http://www.w3.org/2000/svg" xmlns:xlink="http://www.w3.org/1999/xlink" x="0px" y="0px"
	 viewBox="0 0 511.891 511.891" style="enable-background:new 0 0 511.891 511.891;" xml:space="preserve">
<g>
	<g>
		<path d="M222.258,487.896h-0.078c-2.21,0-3.96,1.788-3.96,3.999c0,2.21,1.831,3.999,4.038,3.999c2.21,0,3.999-1.789,3.999-3.999
			C226.257,489.684,224.468,487.896,222.258,487.896z"/>
	</g>
</g>
<g>
	<g>
		<path d="M214.147,39.992c-2.282-0.121-4.055,1.667-4.125,3.874l-7.999,255.945c-0.066,2.21,1.668,4.054,3.875,4.124
			c0.043,0,0.086,0,0.129,0c2.148,0,3.925-1.711,3.995-3.874l7.999-255.945C218.087,41.909,216.353,40.062,214.147,39.992z"/>
	</g>
</g>
<g>
	<g>
		<path d="M206.023,191.959c-32.208,0-47.369,15.407-54.418,28.33c-14.556,26.682-7.424,65.01,3.066,81.295
			c0.765,1.188,2.05,1.836,3.366,1.836c0.742,0,1.492-0.204,2.16-0.633c1.859-1.195,2.394-3.671,1.199-5.529
			c-9.647-14.973-15.364-50.048-2.769-73.137c8.744-16.036,24.69-24.163,47.396-24.163c2.21,0,3.999-1.789,3.999-3.999
			C210.022,193.748,208.233,191.959,206.023,191.959z"/>
	</g>
</g>
<g>
	<g>
		<path d="M170.343,303.101c-5.154-6.483-12.688-8.983-21.19-7.061c-2.156,0.484-3.507,2.632-3.019,4.78
			c0.488,2.155,2.628,3.491,4.784,3.022c5.58-1.25,9.892,0.125,13.169,4.241c7.995,10.045,7.827,33.743-0.355,50.716
			c-3.086,6.396-10.006,17.121-21.695,17.121c-2.211,0-4,1.789-4,3.999c0,2.211,1.79,3.999,4,3.999
			c11.904,0,22.167-7.686,28.896-21.642C180.611,342.21,180.345,315.669,170.343,303.101z"/>
	</g>
</g>
<g>
	<g>
		<path d="M222.062,503.891c-42.253-0.453-69.54-8.685-81.107-24.455c-12.872-17.552-5.19-42.874,0.984-63.222
			c4.87-16.051,8.716-28.727,2.964-36.367c-1.332-1.757-3.828-2.116-5.601-0.788c-1.765,1.335-2.117,3.843-0.789,5.6
			c3.309,4.389-0.523,17.019-4.229,29.236c-6.689,22.05-15.016,49.49,0.219,70.266c13.322,18.168,41.937,27.237,87.474,27.729
			c0.016,0,0.027,0,0.043,0c2.191,0,3.975-1.757,3.998-3.953C226.041,505.727,224.272,503.914,222.062,503.891z"/>
	</g>
</g>
<g>
	<g>
		<path d="M234.016,43.866c-0.07-2.207-2.011-3.972-4.124-3.874c-2.206,0.07-3.94,1.917-3.874,4.124l7.998,255.945
			c0.071,2.163,1.848,3.874,3.996,3.874c0.043,0,0.086,0,0.129,0c2.207-0.07,3.94-1.914,3.874-4.124L234.016,43.866z"/>
	</g>
</g>
<g>
	<g>
		<path d="M292.43,220.289c-7.045-12.923-22.206-28.33-54.413-28.33c-2.211,0-4,1.789-4,4c0,2.21,1.79,3.999,4,3.999
			c22.706,0,38.652,8.127,47.392,24.163c12.598,23.089,6.881,58.163-2.765,73.137c-1.196,1.858-0.664,4.334,1.194,5.529
			c0.672,0.43,1.422,0.633,2.164,0.633c1.312,0,2.6-0.649,3.366-1.836C299.859,285.299,306.99,246.971,292.43,220.289z"/>
	</g>
</g>
<g>
	<g>
		<path d="M301.998,375.918c-11.685,0-18.606-10.725-21.683-17.121c-8.185-16.973-8.357-40.671-0.359-50.724
			c3.272-4.108,7.577-5.506,13.161-4.233c2.133,0.461,4.297-0.867,4.788-3.022c0.485-2.148-0.866-4.296-3.022-4.78
			c-8.506-1.914-16.028,0.586-21.184,7.061c-9.997,12.569-10.263,39.11-0.593,59.175c6.733,13.958,16.996,21.644,28.892,21.644
			c2.211,0,4-1.788,4-4.001C305.998,377.707,304.209,375.918,301.998,375.918z"/>
	</g>
</g>
<g>
	<g>
		<path d="M309.755,413.896c-3.703-12.217-7.538-24.847-4.226-29.229c1.327-1.764,0.977-4.272-0.781-5.607
			c-1.773-1.328-4.272-0.969-5.608,0.788c-5.757,7.639-1.905,20.316,2.96,36.367c6.178,20.348,13.856,45.67,0.984,63.222
			c-11.567,15.769-38.858,24.002-81.107,24.455c-2.21,0.024-3.979,1.836-3.956,4.046c0.023,2.195,1.808,3.952,3.999,3.952
			c0.011,0,0.027,0,0.043,0.001c45.536-0.493,74.156-9.561,87.473-27.729C324.776,463.385,316.448,435.946,309.755,413.896z"/>
	</g>
</g>
<g>
	<g>
		<path d="M222.02,0.001c-6.616,0-11.998,5.381-11.998,11.997c0,2.21,1.789,3.999,4,3.999c2.21,0,3.999-1.789,3.999-3.999
			c0-2.207,1.792-3.999,3.999-3.999s3.999,1.792,3.999,3.999c0,2.21,1.789,3.999,3.999,3.999c2.211,0,3.999-1.789,3.999-3.999
			C234.017,5.382,228.636,0.001,222.02,0.001z"/>
	</g>
</g>
<g>
	<g>
		<path d="M230.018,23.994c-2.21,0-3.999,1.79-3.999,4c0,2.207-1.792,3.999-3.999,3.999c-2.207,0-3.999-1.792-3.999-3.999
			c0-2.211-1.789-4-3.999-4c-2.211,0-4,1.79-4,4c0,6.616,5.382,11.998,11.998,11.998c6.615,0,11.997-5.382,11.997-11.998
			C234.017,25.783,232.229,23.994,230.018,23.994z"/>
	</g>
</g>
<g>
	<g>
		<path d="M214.022,7.999c-2.211,0-4,1.789-4,3.999v15.996c0,2.21,1.789,3.999,4,3.999c2.21,0,3.999-1.788,3.999-3.998V11.998
			C218.021,9.788,216.232,7.999,214.022,7.999z"/>
	</g>
</g>
<g>
	<g>
		<path d="M230.018,7.999c-2.21,0-3.999,1.789-3.999,3.999v15.996c0,2.21,1.789,3.999,3.999,3.999c2.211,0,3.999-1.788,3.999-3.998
			V11.998C234.017,9.788,232.229,7.999,230.018,7.999z"/>
	</g>
</g>
<g>
	<g>
		<path d="M238.016,15.997h-7.999c-2.21,0-3.999,1.789-3.999,3.999c0,2.211,1.789,3.999,3.999,3.999h7.999
			c2.211,0,3.999-1.788,3.999-3.999C242.015,17.786,240.226,15.997,238.016,15.997z"/>
	</g>
</g>
<g>
	<g>
		<path d="M214.022,15.997h-7.999c-2.211,0-4,1.789-4,3.999c0,2.211,1.79,3.999,4,3.999h7.999c2.21,0,3.999-1.788,3.999-3.999
			C218.021,17.786,216.232,15.997,214.022,15.997z"/>
	</g>
</g>
<g>
	<g>
		<path d="M254.013,47.99h-15.731c-2.21,0-3.999,1.789-3.999,3.999c0,2.211,1.789,3.999,3.999,3.999h15.731
			c2.21,0,3.998-1.788,3.999-3.999C258.012,49.779,256.223,47.99,254.013,47.99z"/>
	</g>
</g>
<g>
	<g>
		<path d="M254.013,39.992c-2.21,0-3.999,1.789-3.999,3.999v15.997c0,2.21,1.789,3.999,3.999,3.999s3.998-1.789,3.999-3.999V43.991
			C258.012,41.781,256.223,39.992,254.013,39.992z"/>
	</g>
</g>
<g>
	<g>
		<path d="M254.013,79.983h-14.747c-2.21,0-3.999,1.789-3.999,3.999c0,2.211,1.789,3.999,3.999,3.999h14.747
			c2.21,0,3.998-1.788,3.999-3.999C258.012,81.772,256.223,79.983,254.013,79.983z"/>
	</g>
</g>
<g>
	<g>
		<path d="M254.013,71.985c-2.21,0-3.999,1.789-3.999,3.999v15.997c0,2.21,1.789,3.999,3.999,3.999s3.998-1.789,3.999-3.999V75.984
			C258.012,73.774,256.223,71.985,254.013,71.985z"/>
	</g>
</g>
<g>
	<g>
		<path d="M205.273,63.986h-15.247c-2.21,0-3.999,1.789-3.999,4c0,2.21,1.789,3.999,3.999,3.999h15.247c2.211,0,4-1.789,4-3.999
			C209.273,65.775,207.483,63.986,205.273,63.986z"/>
	</g>
</g>
<g>
	<g>
		<path d="M190.027,55.987c-2.21,0-3.999,1.79-3.999,4v15.997c0,2.21,1.789,3.999,3.999,3.999s3.999-1.788,3.999-3.999V59.987
			C194.026,57.776,192.237,55.987,190.027,55.987z"/>
	</g>
</g>
<g>
	<g>
		<path d="M204.274,95.979h-14.247c-2.21,0-3.999,1.789-3.999,4c0,2.21,1.789,3.999,3.999,3.999h14.247
			c2.21,0,3.999-1.789,3.999-3.999C208.273,97.768,206.484,95.979,204.274,95.979z"/>
	</g>
</g>
<g>
	<g>
		<path d="M190.027,87.981c-2.21,0-3.999,1.79-3.999,4v15.996c0,2.21,1.789,3.999,3.999,3.999s3.999-1.788,3.999-3.998V91.981
			C194.026,89.77,192.237,87.981,190.027,87.981z"/>
	</g>
</g>
<g>
	<g>
		<path d="M238.016,295.937h-31.993c-2.211,0-4,1.788-4,3.999c0,2.21,1.79,3.999,4,3.999h31.993c2.211,0,3.999-1.789,3.999-3.999
			C242.015,297.725,240.226,295.937,238.016,295.937z"/>
	</g>
</g>
<g>
	<g>
		<path d="M222.02,191.959c-2.21,0-3.999,1.789-3.999,4v87.98c0,2.211,1.789,4,3.999,4c2.21,0,3.999-1.789,3.999-4v-87.98
			C226.019,193.748,224.23,191.959,222.02,191.959z"/>
	</g>
</g>
<g>
	<g>
		<path d="M238.016,439.914h-31.993c-2.211,0-4,1.789-4,3.999c0,2.211,1.79,3.999,4,3.999h31.993c2.211,0,3.999-1.788,3.999-3.999
			C242.015,441.703,240.226,439.914,238.016,439.914z"/>
	</g>
</g>
<g>
	<g>
		<path d="M238.582,439.954c-2.19-0.305-4.214,1.21-4.526,3.398l-7.998,55.979c-0.312,2.187,1.207,4.21,3.394,4.522
			c0.191,0.031,0.382,0.039,0.57,0.039c1.961,0,3.671-1.437,3.955-3.428l7.999-55.98
			C242.289,442.298,240.77,440.266,238.582,439.954z"/>
	</g>
</g>
<g>
	<g>
		<path d="M217.981,499.33l-7.999-55.979c-0.316-2.187-2.355-3.734-4.526-3.398c-2.187,0.312-3.706,2.343-3.394,4.53l7.999,55.98
			c0.286,1.991,1.996,3.429,3.957,3.429c0.187,0,0.378-0.008,0.569-0.04C216.774,503.54,218.293,501.518,217.981,499.33z"/>
	</g>
</g>
<g>
	<g>
		<path d="M222.02,311.933c-2.21,0-3.999,1.789-3.999,3.999v111.977c0,2.21,1.789,3.999,3.999,3.999c2.21,0,3.999-1.789,3.999-3.999
			V315.932C226.019,313.722,224.23,311.933,222.02,311.933z"/>
	</g>
</g>
<g>
	<g>
		<path d="M238.016,311.933c-2.211,0-4,1.789-4,3.999v111.977c0,2.21,1.79,3.999,4,3.999c2.211,0,3.999-1.789,3.999-3.999V315.932
			C242.015,313.722,240.227,311.933,238.016,311.933z"/>
	</g>
</g>
<g>
	<g>
		<path d="M206.023,311.933c-2.211,0-4,1.789-4,3.999v111.977c0,2.21,1.79,3.999,4,3.999c2.211,0,3.999-1.789,3.999-3.999V315.932
			C210.022,313.722,208.234,311.933,206.023,311.933z"/>
	</g>
</g>
<g>
	<g>
		<path d="M246.015,367.922h-47.99c-2.21,0-3.999,1.789-3.999,3.999c0,2.21,1.789,3.999,3.999,3.999h47.99
			c2.21,0,3.999-1.789,3.999-3.999C250.014,369.711,248.225,367.922,246.015,367.922z"/>
	</g>
</g>
<g>
	<g>
		<path d="M381.981,7.999c-2.211,0-3.999,1.789-3.999,3.999v495.893c0,2.211,1.788,3.999,3.999,3.999
			c2.21,0,3.999-1.788,3.999-3.998V11.998C385.98,9.788,384.191,7.999,381.981,7.999z"/>
	</g>
</g>
<g>
	<g>
		<path d="M365.984,0.001c-2.21,0-3.999,1.788-3.999,3.999v471.898c0,2.211,1.789,3.999,3.999,3.999c2.211,0,4-1.788,4-3.999V4
			C369.984,1.789,368.195,0.001,365.984,0.001z"/>
	</g>
</g>
<g>
	<g>
		<path d="M381.981,471.899h-15.997c-2.21,0-3.999,1.789-3.999,3.999c0,2.211,1.789,3.999,3.999,3.999h15.997
			c2.21,0,3.999-1.788,3.999-3.999C385.98,473.688,384.191,471.899,381.981,471.899z"/>
	</g>
</g>
<g>
	<g>
		<path d="M381.981,447.904h-15.997c-2.21,0-3.999,1.789-3.999,4c0,2.21,1.789,3.999,3.999,3.999h15.997
			c2.21,0,3.999-1.789,3.999-3.999C385.98,449.693,384.191,447.904,381.981,447.904z"/>
	</g>
</g>
<g>
	<g>
		<path d="M383.769,8.421l-15.996-7.999c-1.976-0.987-4.374-0.183-5.366,1.789c-0.984,1.976-0.188,4.378,1.789,5.366l15.996,7.998
			c0.578,0.285,1.187,0.422,1.789,0.422c1.468,0,2.874-0.809,3.577-2.21C386.55,11.811,385.746,9.409,383.769,8.421z"/>
	</g>
</g>
<g>
	<g>
		<path d="M381.981,23.994h-15.997c-2.21,0-3.999,1.79-3.999,4c0,2.21,1.789,3.999,3.999,3.999h15.997
			c2.21,0,3.999-1.788,3.999-3.999S384.191,23.994,381.981,23.994z"/>
	</g>
</g>
<g>
</g>
<g>
</g>
<g>
</g>
<g>
</g>
<g>
</g>
<g>
</g>
<g>
</g>
<g>
</g>
<g>
</g>
<g>
</g>
<g>
</g>
<g>
</g>
<g>
</g>
<g>
</g>
<g>
</g>
</svg>
